<svg xmlns="http://www.w3.org/2000/svg" viewBox="95 130 195 205">
<path d="M0 0 C1.0003125 0.24492187 2.000625 0.48984375 3.03125 0.7421875 C16.83650726 4.52858087 28.42678924 11.41198025 39 21 C39.62003906 21.52722656 40.24007812 22.05445313 40.87890625 22.59765625 C45.08680963 26.41503496 48.20078379 30.9488047 51.375 35.625 C52.03737671 36.59397217 52.03737671 36.59397217 52.71313477 37.58251953 C54.9811865 41.02520107 56.56582277 43.80295349 57 48 C57.556875 48.07476562 58.11375 48.14953125 58.6875 48.2265625 C67.26905759 49.70514168 73.30678907 54.28327803 78.6796875 61.05078125 C84.55899966 69.73059418 85.01068939 78.85267849 84 89 C82.57168091 95.15051688 80.44504576 100.3962026 76 105 C78.17369386 112.17318974 82.52450703 116.38523319 89.01831055 119.88720703 C90.75853681 120.78467029 92.51388569 121.65261926 94.26953125 122.51953125 C97 124 97 124 98 126 C98.35709157 133.34366578 95.67070414 138.5074123 91 144 C89.01214392 145.93534667 86.98050185 147.73781506 84.83203125 149.4921875 C83.92517578 150.23855469 83.92517578 150.23855469 83 151 C82.18208984 151.64195312 82.18208984 151.64195312 81.34765625 152.296875 C79.36244315 154.80572402 79.16706587 157.24228169 78.625 160.375 C75.07958922 178.06569071 66.28991186 196.27312981 51.2109375 206.98046875 C46.25970078 209.98402878 42.7057135 212.13725274 36.875 212.0625 C35.96492187 212.05347656 35.05484375 212.04445313 34.1171875 212.03515625 C33.41851562 212.02355469 32.71984375 212.01195312 32 212 C29.71674734 207.74484732 28.27169708 203.64998803 27 199 C25.98292969 200.17755859 25.98292969 200.17755859 24.9453125 201.37890625 C15.63220627 211.97448408 3.68606735 222.78512799 -11.12109375 224.203125 C-12.26771484 224.22632813 -12.26771484 224.22632813 -13.4375 224.25 C-14.58025391 224.28867187 -14.58025391 224.28867187 -15.74609375 224.328125 C-18.78353347 223.88593274 -19.97227396 223.3389797 -22 221 C-22.29561076 218.12961948 -22.37943016 215.66245255 -22.25 212.8125 C-22.23195313 212.06291016 -22.21390625 211.31332031 -22.1953125 210.54101562 C-22.14824109 208.6934629 -22.07649766 206.84656841 -22 205 C-22.63164062 205.43570313 -23.26328125 205.87140625 -23.9140625 206.3203125 C-37.22639995 215.1824161 -51.7235202 221.64258053 -68 220 C-72.15998742 218.91154451 -74.54947553 217.67578671 -77 214 C-77.59093188 207.6609126 -76.37959564 203.59241934 -73.5 198 C-73.16613281 197.32066406 -72.83226562 196.64132812 -72.48828125 195.94140625 C-71.67287048 194.28728726 -70.83840272 192.64258493 -70 191 C-70.87269531 191.32226562 -71.74539062 191.64453125 -72.64453125 191.9765625 C-81.8380146 194.78062844 -90.47715542 193.04076612 -99 189 C-102.9278834 186.84367217 -107.26155142 184.3612667 -108.65234375 179.9140625 C-108.74644531 179.15867187 -108.84054688 178.40328125 -108.9375 177.625 C-109.04964844 176.87476563 -109.16179687 176.12453125 -109.27734375 175.3515625 C-108.76080211 170.9718714 -105.67287245 168.57395093 -102.44921875 165.82421875 C-101.53785156 165.11910156 -100.62648438 164.41398438 -99.6875 163.6875 C-92.49295144 158.11812279 -92.49295144 158.11812279 -87 151 C-87.18015488 146.78971363 -88.79479178 144.73685368 -91.5625 141.6875 C-106.20171677 124.05210601 -111.62680324 100.50932566 -110 78 C-107.22977684 56.24941972 -98.41359744 38.2399231 -83 23 C-82.20851563 22.19820312 -81.41703125 21.39640625 -80.6015625 20.5703125 C-59.79039669 0.58882772 -27.94787942 -7.15136915 0 0 Z " fill="#DF4888" transform="translate(207,132)"/>
<path d="M0 0 C1.0003125 0.24492187 2.000625 0.48984375 3.03125 0.7421875 C16.83650726 4.52858087 28.42678924 11.41198025 39 21 C39.62003906 21.52722656 40.24007812 22.05445313 40.87890625 22.59765625 C45.08680963 26.41503496 48.20078379 30.9488047 51.375 35.625 C52.03737671 36.59397217 52.03737671 36.59397217 52.71313477 37.58251953 C54.9811865 41.02520107 56.56582277 43.80295349 57 48 C57.556875 48.07476562 58.11375 48.14953125 58.6875 48.2265625 C67.26905759 49.70514168 73.30678907 54.28327803 78.6796875 61.05078125 C84.55899966 69.73059418 85.01068939 78.85267849 84 89 C82.57168091 95.15051688 80.44504576 100.3962026 76 105 C78.17369386 112.17318974 82.52450703 116.38523319 89.01831055 119.88720703 C90.75853681 120.78467029 92.51388569 121.65261926 94.26953125 122.51953125 C97 124 97 124 98 126 C98.35709157 133.34366578 95.67070414 138.5074123 91 144 C89.01214392 145.93534667 86.98050185 147.73781506 84.83203125 149.4921875 C83.92517578 150.23855469 83.92517578 150.23855469 83 151 C82.18208984 151.64195312 82.18208984 151.64195312 81.34765625 152.296875 C79.36244315 154.80572402 79.16706587 157.24228169 78.625 160.375 C75.07958922 178.06569071 66.28991186 196.27312981 51.2109375 206.98046875 C46.25970078 209.98402878 42.7057135 212.13725274 36.875 212.0625 C35.96492187 212.05347656 35.05484375 212.04445313 34.1171875 212.03515625 C33.41851562 212.02355469 32.71984375 212.01195312 32 212 C29.71674734 207.74484732 28.27169708 203.64998803 27 199 C25.98292969 200.17755859 25.98292969 200.17755859 24.9453125 201.37890625 C15.63220627 211.97448408 3.68606735 222.78512799 -11.12109375 224.203125 C-12.26771484 224.22632813 -12.26771484 224.22632813 -13.4375 224.25 C-14.58025391 224.28867187 -14.58025391 224.28867187 -15.74609375 224.328125 C-18.78353347 223.88593274 -19.97227396 223.3389797 -22 221 C-22.29561076 218.12961948 -22.37943016 215.66245255 -22.25 212.8125 C-22.23195313 212.06291016 -22.21390625 211.31332031 -22.1953125 210.54101562 C-22.14824109 208.6934629 -22.07649766 206.84656841 -22 205 C-22.63164062 205.43570313 -23.26328125 205.87140625 -23.9140625 206.3203125 C-37.22639995 215.1824161 -51.7235202 221.64258053 -68 220 C-72.15998742 218.91154451 -74.54947553 217.67578671 -77 214 C-77.59093188 207.6609126 -76.37959564 203.59241934 -73.5 198 C-73.16613281 197.32066406 -72.83226562 196.64132812 -72.48828125 195.94140625 C-71.67287048 194.28728726 -70.83840272 192.64258493 -70 191 C-70.87269531 191.32226562 -71.74539062 191.64453125 -72.64453125 191.9765625 C-81.8380146 194.78062844 -90.47715542 193.04076612 -99 189 C-102.9278834 186.84367217 -107.26155142 184.3612667 -108.65234375 179.9140625 C-108.74644531 179.15867187 -108.84054688 178.40328125 -108.9375 177.625 C-109.04964844 176.87476563 -109.16179687 176.12453125 -109.27734375 175.3515625 C-108.76080211 170.9718714 -105.67287245 168.57395093 -102.44921875 165.82421875 C-101.53785156 165.11910156 -100.62648438 164.41398438 -99.6875 163.6875 C-92.49295144 158.11812279 -92.49295144 158.11812279 -87 151 C-87.18015488 146.78971363 -88.79479178 144.73685368 -91.5625 141.6875 C-106.20171677 124.05210601 -111.62680324 100.50932566 -110 78 C-107.22977684 56.24941972 -98.41359744 38.2399231 -83 23 C-82.20851563 22.19820312 -81.41703125 21.39640625 -80.6015625 20.5703125 C-59.79039669 0.58882772 -27.94787942 -7.15136915 0 0 Z M-78 30 C-80.38697746 32.66535976 -80.38697746 32.66535976 -81 36 C-81.66 36 -82.32 36 -83 36 C-98.7402063 54.63450116 -101.27109843 76.5265633 -100 100 C-98.49523078 114.22267301 -91.68915648 127.61876091 -82 138 C-81.33232571 139.33282905 -80.66558857 140.66612816 -80 142 C-79.319375 142.5775 -78.63875 143.155 -77.9375 143.75 C-75.11262817 147.03049632 -75.28476582 149.72851263 -75 154 C-75.66 154 -76.32 154 -77 154 C-77 154.66 -77 155.32 -77 156 C-77.99 156.33 -78.98 156.66 -80 157 C-80 157.66 -80 158.32 -80 159 C-80.66 159 -81.32 159 -82 159 C-82.825 160.010625 -83.65 161.02125 -84.5 162.0625 C-88.31038794 166.69141572 -93.01497902 169.74815327 -98 173 C-99.485 173.99 -99.485 173.99 -101 175 C-100.64795359 177.61520187 -100.30689341 178.7355567 -98.27734375 180.484375 C-89.47774387 185.2440918 -79.98599456 185.61161392 -70.4453125 183.04296875 C-64.70424749 180.83216743 -61.81179184 178.82826966 -58 174 C-54.75 173.1875 -54.75 173.1875 -52 173 C-52.32396223 179.91754642 -55.37343306 184.76992086 -58.875 190.625 C-59.68904297 192.0171875 -59.68904297 192.0171875 -60.51953125 193.4375 C-62.52642281 196.86246408 -64.54172518 200.27582092 -66.66455078 203.63037109 C-68.19168919 206.34013441 -68.34029468 207.93734791 -68 211 C-66.85712614 212.35445367 -66.85712614 212.35445367 -63.8125 212.3125 C-50.05997444 212.09068507 -36.13596361 205.01928966 -26 196 C-23.55950683 193.41947854 -21.267566 190.73270774 -19 188 C-16.875 185.5 -16.875 185.5 -15 184 C-12.3828125 183.90625 -12.3828125 183.90625 -10 184 C-10.29166667 185.75 -10.58333333 187.5 -10.875 189.25 C-11.14570313 190.88775391 -11.14570313 190.88775391 -11.421875 192.55859375 C-11.79538389 194.78198113 -12.18002888 197.00353935 -12.578125 199.22265625 C-13.52377765 204.56559375 -14.24668854 209.57285208 -14 215 C-5.69675118 216.10709984 0.37142058 211.60438362 6.90625 206.9140625 C18.25675851 198.02698853 23.95950484 187.78702222 30 175 C31.98 175.33 33.96 175.66 36 176 C36.33 184.91 36.66 193.82 37 203 C44.93283079 201.67786153 49.2233997 198.04748813 54.5625 192.1875 C56.1830593 190.15768966 56.1830593 190.15768966 56 188 C56.99 187.67 57.98 187.34 59 187 C60.29317726 184.75569237 61.386457 182.60493808 62.4375 180.25 C62.74244385 179.58129883 63.0473877 178.91259766 63.36157227 178.22363281 C68.21080462 167.47054474 68.21080462 167.47054474 70 156 C68.37191406 155.92652344 68.37191406 155.92652344 66.7109375 155.8515625 C65.26560216 155.77648014 63.82029081 155.70093472 62.375 155.625 C61.30572266 155.57859375 61.30572266 155.57859375 60.21484375 155.53125 C55.80843555 155.28869542 52.17738282 154.53270881 48 153 C43.7337588 152.37055458 41.45365108 152.09369565 37.76953125 154.390625 C36.2386655 155.60267017 34.73215268 156.84603572 33.25 158.1171875 C30.51463279 160.40615798 27.60757517 162.16861205 24.53125 163.95703125 C22.83007591 164.93361219 22.83007591 164.93361219 22 167 C19.94929147 167.92977039 17.85788664 168.77086096 15.75 169.5625 C14.61046875 169.99691406 13.4709375 170.43132812 12.296875 170.87890625 C5.58454454 173.16141673 -0.71887558 173.21586833 -7.75 173.25 C-8.79671875 173.270625 -9.8434375 173.29125 -10.921875 173.3125 C-22.15620914 173.36867167 -32.1620484 170.15912002 -40.6875 162.625 C-41.450625 161.75875 -42.21375 160.8925 -43 160 C-43.515625 159.42894531 -44.03125 158.85789062 -44.5625 158.26953125 C-48.65312944 153.65773989 -51.35618432 150.41131775 -51 144 C-48.671875 143.78125 -48.671875 143.78125 -46 144 C-44.515625 145.46875 -44.515625 145.46875 -43.25 147.5 C-36.75260419 156.78668189 -28.1622592 163.30089581 -17 166 C-3.01543878 168.26724739 10.02108439 164.6816117 21.875 157.125 C26.01207342 154.11984262 29.98338301 150.88219705 33.93359375 147.63671875 C36.87813659 145.3044627 38.5555018 144.8439158 42.25 144.8125 C42.99765625 144.79832031 43.7453125 144.78414062 44.515625 144.76953125 C47 145 47 145 49.75 145.984375 C57.87129381 148.52227932 68.9035666 148.56213901 76.6875 145 C81.69395253 141.95974941 86.93258867 137.50720866 88.68359375 131.75390625 C88.78800781 131.17511719 88.89242187 130.59632813 89 130 C88.48050781 129.75765625 87.96101562 129.5153125 87.42578125 129.265625 C86.72839844 128.93046875 86.03101563 128.5953125 85.3125 128.25 C84.62800781 127.92515625 83.94351563 127.6003125 83.23828125 127.265625 C78.21407936 124.42471503 74.76344237 120.73327103 71.1875 116.25 C70.39730469 115.26515625 69.60710937 114.2803125 68.79296875 113.265625 C67.90544922 112.14414063 67.90544922 112.14414063 67 111 C66.14728516 111.2165625 66.14728516 111.2165625 65.27734375 111.4375 C56.13249991 113.63592657 49.41885815 113.47334313 41 109 C32.94717097 103.45841905 28.18651678 96.50405961 26 87 C25.75706676 83.95166816 25.76435187 80.931139 25.8125 77.875 C25.8134668 76.69744141 25.8134668 76.69744141 25.81445312 75.49609375 C25.84448245 71.53889572 26.03064506 67.86191009 27 64 C26.34 63.67 25.68 63.34 25 63 C25 61.35 25 59.7 25 58 C27.55781875 56.51219708 30.12070266 55.03466662 32.6875 53.5625 C33.40873047 53.14162109 34.12996094 52.72074219 34.87304688 52.28710938 C38.55781352 50.18393206 41.70344855 48.46609532 46 48 C44.69345674 37.13193562 33.02565388 27.39759266 25 21 C11.33159109 10.90710203 -4.17877577 7.82111405 -20.8125 7.8125 C-22.66198242 7.79413086 -22.66198242 7.79413086 -24.54882812 7.77539062 C-44.64615178 7.74320057 -63.76322335 15.59533683 -78 30 Z " fill="#201240" transform="translate(207,132)"/>
<path d="M0 0 C0.495 0.99 0.495 0.99 1 2 C-0.19932452 4.6681269 -1.45240314 7.22808583 -2.8125 9.8125 C-12.7693636 29.01378147 -14.72268353 52.48921614 -8.3984375 73.390625 C-3.18146566 86.85565847 3.17711393 100.30626836 16 108 C18.66777683 108.71615324 18.66777683 108.71615324 21 109 C21.33 109.99 21.66 110.98 22 112 C19.525 112.495 19.525 112.495 17 113 C17.3260263 120.82463113 21.35077289 125.00219037 26.375 130.6875 C29.67516584 133.59478896 33.23429725 135.75475882 37 138 C38.485 138.99 38.485 138.99 40 140 C46.58266217 142.09752625 52.8070159 142.38472659 59.6875 142.375 C60.74880127 142.37483887 61.81010254 142.37467773 62.90356445 142.37451172 C70.94014311 142.25765629 77.56979353 141.19603858 85 138 C85.87269531 137.68804687 86.74539062 137.37609375 87.64453125 137.0546875 C90.07206041 135.96773414 91.22720563 134.93838505 93 133 C94.92728497 131.46655152 96.90133405 130.01453719 98.890625 128.5625 C100.22014715 127.57766877 101.52672351 126.56030038 102.796875 125.5 C105.8602412 123.02682362 108.06367225 121.67631863 112.0625 121.5625 C116 122 116 122 118.72265625 122.98828125 C122.65637097 124.20262226 126.28440168 124.44746951 130.375 124.625 C131.11105469 124.66367187 131.84710938 124.70234375 132.60546875 124.7421875 C134.40327406 124.83557998 136.20160108 124.9188371 138 125 C135.6811706 136.59414701 132.02538944 146.79700721 126 157 C125.34 157 124.68 157 124 157 C123.773125 157.556875 123.54625 158.11375 123.3125 158.6875 C121.6149149 161.67848327 119.51535592 163.65614562 117 166 C116.52175781 166.46019531 116.04351562 166.92039062 115.55078125 167.39453125 C111.77240964 170.83572534 110.41077853 171.09820358 105 172 C104.67 163.09 104.34 154.18 104 145 C102.02 144.67 100.04 144.34 98 144 C97.46890625 145.08539063 96.9378125 146.17078125 96.390625 147.2890625 C95.6773009 148.73448239 94.96374699 150.17978889 94.25 151.625 C93.90195313 152.33785156 93.55390625 153.05070313 93.1953125 153.78515625 C86.58401271 167.13018731 74.98407145 178.29365346 61 184 C57.125 184.1875 57.125 184.1875 54 184 C54.72874593 170.34560261 54.72874593 170.34560261 56 165.6875 C57.14561423 161.46304754 57.61750427 157.34837254 58 153 C55.26359735 153 53.519914 153.05374658 51 154 C49.36407662 155.77149715 48.12243187 157.68815458 46.76953125 159.68359375 C37.9997325 171.16370558 23.07778146 178.81413365 9 181 C6.23217121 181.22992935 3.78238287 181.20999116 1 181 C0.67 180.67 0.34 180.34 0 180 C0.23207592 173.46749253 2.95990128 168.99080204 6.3125 163.5 C7.28779532 161.86460415 8.26305629 160.22918781 9.23828125 158.59375 C10.569545 156.37811073 11.90149251 154.16294312 13.23876953 151.95092773 C15.32004102 148.43307129 16.50240332 146.14482739 16 142 C10.77059204 143.09416621 10.77059204 143.09416621 6.6875 146.375 C0.30816963 152.60597385 -7.44415842 153.61094218 -16.08154297 153.54711914 C-22.00604444 153.28642977 -27.43684605 151.93196939 -32 148 C-32.75390625 145.828125 -32.75390625 145.828125 -33 144 C-32.05640625 143.36384766 -32.05640625 143.36384766 -31.09375 142.71484375 C-21.2900358 136.59116875 -21.2900358 136.59116875 -14 128 C-13.34 128 -12.68 128 -12 128 C-11.505 126.515 -11.505 126.515 -11 125 C-10.34 125 -9.68 125 -9 125 C-9 124.34 -9 123.68 -9 123 C-8.34 123 -7.68 123 -7 123 C-7.22917968 121.39272673 -7.48420802 119.78912584 -7.75 118.1875 C-7.88921875 117.29417969 -8.0284375 116.40085937 -8.171875 115.48046875 C-9.18037691 112.4597201 -10.3836853 111.71027576 -13 110 C-14.03435556 108.35443434 -15.02763513 106.6829392 -16 105 C-16.92983103 103.80648554 -17.86825594 102.61964451 -18.8125 101.4375 C-31.98191724 83.88916983 -33.33263227 64.18609597 -32 43 C-31.69259987 40.99585024 -31.36602856 38.99427536 -31 37 C-30.34 37 -29.68 37 -29 37 C-28.56171875 35.99582031 -28.1234375 34.99164063 -27.671875 33.95703125 C-21.20561394 19.78039422 -11.89612397 9.94347736 0 0 Z " fill="#6A1983" transform="translate(139,163)"/>
<path d="M0 0 C9.06923442 6.63562947 14.58979304 14.39593628 17.3125 25.375 C18.63885983 36.38123587 16.60207305 46.1989038 10.08984375 55.2109375 C2.78768556 64.10191693 -5.6833884 69.29240397 -17.2109375 70.8515625 C-27.5150967 71.28374578 -36.19605726 68.60670417 -44.125 61.9375 C-53.43039447 52.97889042 -57.54393838 44.49774461 -57.9375 31.625 C-57.90832133 25.7892664 -56.71173786 20.82116376 -54.6875 15.375 C-55.3475 14.715 -56.0075 14.055 -56.6875 13.375 C-57.125 10.9375 -57.125 10.9375 -56.6875 8.375 C-54.18715195 6.38942949 -51.91593221 5.4460678 -48.875 4.5 C-46.10021285 3.52066336 -44.23715392 2.52704807 -41.8125 0.9375 C-28.91139868 -7.44080143 -13.24945788 -8.19554095 0 0 Z " fill="#1D0E3D" transform="translate(201.6875,196.625)"/>
<path d="M0 0 C2.475 0.495 2.475 0.495 5 1 C5 1.66 5 2.32 5 3 C5.99 3 6.98 3 8 3 C12 9.625 12 9.625 12 13 C12.556875 13.07476562 13.11375 13.14953125 13.6875 13.2265625 C22.26905759 14.70514168 28.30678907 19.28327803 33.6796875 26.05078125 C39.55899966 34.73059418 40.01068939 43.85267849 39 54 C37.57168091 60.15051688 35.44504576 65.3962026 31 70 C33.17369386 77.17318974 37.52450703 81.38523319 44.01831055 84.88720703 C45.75853681 85.78467029 47.51388569 86.65261926 49.26953125 87.51953125 C52 89 52 89 53 91 C52.94921875 93.0234375 52.94921875 93.0234375 52.6875 95.375 C52.60886719 96.14585937 52.53023438 96.91671875 52.44921875 97.7109375 C51.98084469 100.09760878 51.18250119 101.88597746 50 104 C48.02 103.505 48.02 103.505 46 103 C45.505 104.485 45.505 104.485 45 106 C43.35 105.34 41.7 104.68 40 104 C41.19899698 100.9168649 42.47700477 97.93720508 44 95 C43.175 94.79375 42.35 94.5875 41.5 94.375 C32.72683118 90.92839797 27.5111031 84.41653768 22 77 C21.43152344 77.144375 20.86304688 77.28875 20.27734375 77.4375 C11.16596016 79.6278827 4.36454785 79.54622754 -4 75 C-12.39632171 68.98551915 -17.66158417 62.08506212 -20 52 C-20.26586466 48.95199032 -20.28042694 45.93290797 -20.25 42.875 C-20.25773438 42.08996094 -20.26546875 41.30492187 -20.2734375 40.49609375 C-20.25899747 36.21462391 -19.97496156 32.90290022 -18 29 C-18.99 28.67 -19.98 28.34 -21 28 C-21.25 25.6875 -21.25 25.6875 -21 23 C-14.93398333 17.6939947 -7.11351675 13.36060074 1 13 C0.76023438 12.39671875 0.52046875 11.7934375 0.2734375 11.171875 C-0.02304688 10.37265625 -0.31953125 9.5734375 -0.625 8.75 C-0.92664063 7.96109375 -1.22828125 7.1721875 -1.5390625 6.359375 C-2.09752136 3.50082285 -1.53690745 2.41040161 0 0 Z " fill="#1D103F" transform="translate(252,167)"/>
<path d="M0 0 C10.90237483 5.59891607 18.23085156 14.17735705 22.8828125 25.48046875 C23.22967156 26.81034757 23.5652255 28.14329734 23.8828125 29.48046875 C4.73256906 30.33685737 -14.40507712 30.74912672 -33.57043457 31.01269531 C-37.25922959 31.06411576 -40.94797078 31.11915396 -44.63671875 31.17382812 C-51.79682793 31.27945095 -58.95698605 31.3812786 -66.1171875 31.48046875 C-63.95864431 20.02056674 -57.17443741 10.74269757 -47.6171875 4.16796875 C-32.89262655 -5.00303807 -16.24600702 -6.85558452 0 0 Z " fill="#FBFAFC" transform="translate(519.1171875,228.51953125)"/>
<path d="M0 0 C1.86205078 -0.01836914 1.86205078 -0.01836914 3.76171875 -0.03710938 C10.27096153 -0.04750753 15.91553537 0.21580671 22.125 2.1875 C23.83623047 2.70376953 23.83623047 2.70376953 25.58203125 3.23046875 C41.83692534 8.7749204 57.88951765 19.56940079 66.125 35.1875 C66.80078125 37.9765625 66.80078125 37.9765625 67.125 40.1875 C62.67 40.6825 62.67 40.6825 58.125 41.1875 C57.72410156 40.49785156 57.32320313 39.80820313 56.91015625 39.09765625 C47.23918897 23.11095524 34.83373639 14.6854449 17.125 9.1875 C15.60132813 8.63642578 15.60132813 8.63642578 14.046875 8.07421875 C-5.92748096 2.49347454 -27.79457455 7.97844994 -45.51171875 17.28515625 C-48.16092482 18.78360382 -50.52058178 20.27416266 -52.875 22.1875 C-53.535 21.8575 -54.195 21.5275 -54.875 21.1875 C-38.97486612 6.05548853 -21.75319374 0.01122456 0 0 Z " fill="#F8F2F7" transform="translate(185.875,139.8125)"/>
<path d="M0 0 C7.24295775 3.48591549 7.24295775 3.48591549 9 7 C9.42054103 11.56933999 9.56125534 15.68104995 7.75 19.9375 C5.32973764 22.78995207 3.37558162 24.77185475 -0.40234375 25.3984375 C-9.35273973 25.31569116 -9.35273973 25.31569116 -13 22 C-15.88402967 17.62423085 -16.64987517 14.19900136 -16 9 C-12.34701349 1.96461857 -8.00504827 -1.08543027 0 0 Z " fill="#F9F8FA" transform="translate(196,210)"/>
<path d="M0 0 C3.55224339 1.39000828 4.72646982 2.5988224 6.875 5.75 C8.27006851 9.78019793 8.17042662 11.90350682 7 16 C4.87411271 19.41059615 2.90862837 21.69712388 -1 23 C-8.09270217 23.57199211 -8.09270217 23.57199211 -11.875 21.1875 C-14.92480167 18.04799828 -15.95447722 16.56448252 -16.3125 12.125 C-16.18119684 7.35431838 -14.52884147 4.70524626 -11.375 1.1875 C-7.64480993 -0.67759504 -4.08572861 -0.52624769 0 0 Z " fill="#F7F6F8" transform="translate(272,195)"/>
<path d="M0 0 C1.4540625 0.0309375 1.4540625 0.0309375 2.9375 0.0625 C4.18810207 3.6125962 3.99893725 4.92207199 2.4609375 8.4375 C1.7597851 9.65459474 1.04306756 10.86283116 0.3125 12.0625 C-0.03167969 12.66578125 -0.37585938 13.2690625 -0.73046875 13.890625 C-3.05947182 17.84391434 -5.68080606 20.91673819 -9.0625 24.0625 C-9.7225 24.7225 -10.3825 25.3825 -11.0625 26.0625 C-11.3925 25.4025 -11.7225 24.7425 -12.0625 24.0625 C-13.0525 24.0625 -14.0425 24.0625 -15.0625 24.0625 C-14.7325 22.0825 -14.4025 20.1025 -14.0625 18.0625 C-14.90554687 18.30806641 -14.90554687 18.30806641 -15.765625 18.55859375 C-18.19309056 19.09114997 -20.33139681 19.16148681 -22.8125 19.125 C-23.61171875 19.11597656 -24.4109375 19.10695313 -25.234375 19.09765625 C-25.83765625 19.08605469 -26.4409375 19.07445312 -27.0625 19.0625 C-26.0725 18.4025 -25.0825 17.7425 -24.0625 17.0625 C-24.0625 16.4025 -24.0625 15.7425 -24.0625 15.0625 C-22.4125 15.0625 -20.7625 15.0625 -19.0625 15.0625 C-19.0625 15.7225 -19.0625 16.3825 -19.0625 17.0625 C-18.0725 16.7325 -17.0825 16.4025 -16.0625 16.0625 C-15.629375 14.6703125 -15.629375 14.6703125 -15.1875 13.25 C-13.82780336 9.39752619 -12.33228229 8.4197849 -9.0625 6.0625 C-7.3767876 4.41509924 -5.7061814 2.75183922 -4.0625 1.0625 C-3.0625 0.0625 -3.0625 0.0625 0 0 Z " fill="#1B0D3D" transform="translate(152.0625,304.9375)"/>
<path d="M0 0 C2.72772603 1.8374625 4.28742578 4.06268754 6.24609375 6.69921875 C10.30427576 11.82569702 14.10303281 14.79296494 20.05859375 17.38671875 C20.71859375 17.71671875 21.37859375 18.04671875 22.05859375 18.38671875 C20.58167067 24.04825721 20.58167067 24.04825721 17.93359375 25.76171875 C17.31484375 25.96796875 16.69609375 26.17421875 16.05859375 26.38671875 C15.93677734 25.45279297 15.93677734 25.45279297 15.8125 24.5 C15.26819608 22.24946668 15.26819608 22.24946668 13.2734375 21.3671875 C12.52191406 21.10550781 11.77039063 20.84382813 10.99609375 20.57421875 C2.80257492 17.23178329 -3.37357591 10.91325738 -7.94140625 3.38671875 C-7.94140625 2.72671875 -7.94140625 2.06671875 -7.94140625 1.38671875 C-2.56837736 -0.81133852 -2.56837736 -0.81133852 0 0 Z " fill="#F7F1F6" transform="translate(273.94140625,243.61328125)"/>
<path d="M0 0 C0.66 0.33 1.32 0.66 2 1 C1.67 1.66 1.34 2.32 1 3 C-0.32 3 -1.64 3 -3 3 C-3 3.66 -3 4.32 -3 5 C-3.474375 5.45375 -3.94875 5.9075 -4.4375 6.375 C-6.1512151 7.86564967 -6.1512151 7.86564967 -6.3828125 9.91015625 C-7.17160625 12.5810718 -8.26308024 13.35183979 -10.4375 15.0625 C-20.09419434 23.25082401 -26.17312122 31.29960862 -31.40625 42.69140625 C-33 46 -33 46 -35 48 C-34.29208467 35.72946768 -27.85525274 23.34138163 -20 14 C-19.34 14 -18.68 14 -18 14 C-17.731875 13.401875 -17.46375 12.80375 -17.1875 12.1875 C-15.1186635 8.37648539 -12.80250904 6.88088394 -9 5 C-6.66875707 3.65137994 -4.34333608 2.29382776 -2.0234375 0.92578125 C-1.35570312 0.62027344 -0.68796875 0.31476563 0 0 Z " fill="#CF4E8B" transform="translate(144,154)"/>
<path d="M0 0 C1.625 1.375 1.625 1.375 2.5 4.375 C2.54125 5.365 2.5825 6.355 2.625 7.375 C-0.27203067 10.27203067 -3.00042953 9.75259693 -6.96484375 9.93359375 C-9.78286885 10.44969883 -10.47629224 11.33320122 -12.375 13.375 C-16.79605263 12.95394737 -16.79605263 12.95394737 -18.375 11.375 C-19 8.6875 -19 8.6875 -18.375 5.375 C-12.91280031 0.00969077 -7.50599372 -1.9752615 0 0 Z " fill="#180D3D" transform="translate(246.375,250.625)"/>
<path d="M0 0 C0.66 0 1.32 0 2 0 C1.34944883 5.49849413 -0.46790779 10.30693291 -2.4375 15.4375 C-4.52453688 20.91543392 -6.48268009 26.3348307 -8 32 C-10.64 32 -13.28 32 -16 32 C-15.62016453 25.43679633 -13.06036758 20.99204131 -9.6875 15.4375 C-9.20087891 14.61314453 -8.71425781 13.78878906 -8.21289062 12.93945312 C-6.83055818 10.61199971 -5.4233214 8.30256922 -4 6 C-3.61150879 5.36465332 -3.22301758 4.72930664 -2.82275391 4.07470703 C-1.93927609 2.67842707 -0.97786504 1.33188241 0 0 Z " fill="#85459A" transform="translate(155,311)"/>
<path d="M0 0 C2.86724686 0.57344937 3.8614515 0.8614515 6 3 C5.69690596 7.09176955 5.12300942 10.46165096 3 14 C1.68 13.67 0.36 13.34 -1 13 C-1.33 13.99 -1.66 14.98 -2 16 C-4.475 15.01 -4.475 15.01 -7 14 C-5.66197896 10.39763567 -4.01142412 7.2685642 -2 4 C-1.31903578 2.67391178 -0.64669414 1.34313399 0 0 Z " fill="#1C123E" transform="translate(299,257)"/>
<path d="M0 0 C2.89073687 1.31913538 5.044397 2.78743667 7.375 4.9375 C10.3662998 7.5799225 13.32364951 9.38599247 17 11 C14.10765685 11.82638376 12.11257569 12 9 12 C9.33 12.66 9.66 13.32 10 14 C10.039992 15.99960012 10.04346799 18.00047242 10 20 C10.66 20.33 11.32 20.66 12 21 C11.34 21.66 10.68 22.32 10 23 C9.67 21.68 9.34 20.36 9 19 C7.9275 18.938125 6.855 18.87625 5.75 18.8125 C2 18 2 18 -0.4375 15.4375 C-0.953125 14.633125 -1.46875 13.82875 -2 13 C-0.02 13.66 1.96 14.32 4 15 C4 13.68 4 12.36 4 11 C4 8.66666667 4 6.33333333 4 4 C2.68 4 1.36 4 0 4 C0 2.68 0 1.36 0 0 Z " fill="#D54489" transform="translate(151,253)"/>
<path d="M0 0 C0.33 0.66 0.66 1.32 1 2 C-7.14043404 4.17423358 -14.5657073 5.45636453 -23 5 C-23 4.67 -23 4.34 -23 4 C-21.35 3.67 -19.7 3.34 -18 3 C-17.67 1.35 -17.34 -0.3 -17 -2 C-11.43620009 -3.85459997 -5.31108555 -2.20215742 0 0 Z " fill="#271D46" transform="translate(162,347)"/>
<path d="M0 0 C0.33 0.99 0.66 1.98 1 3 C0.67 3.66 0.34 4.32 0 5 C-0.66 5 -1.32 5 -2 5 C-1.01 6.32 -0.02 7.64 1 9 C0.42765625 9.65355469 -0.1446875 10.30710938 -0.734375 10.98046875 C-3.42664665 14.56861701 -5.30655817 18.28525665 -7.25 22.3125 C-7.61351563 23.05306641 -7.97703125 23.79363281 -8.3515625 24.55664062 C-9.23990537 26.36839254 -10.12072593 28.18382953 -11 30 C-11.33 30 -11.66 30 -12 30 C-11.35415288 18.80531659 -5.96830106 9.27035079 0 0 Z " fill="#BE4482" transform="translate(121,172)"/>
<path d="M0 0 C1.11375 0.598125 2.2275 1.19625 3.375 1.8125 C4.00148437 2.14894531 4.62796875 2.48539063 5.2734375 2.83203125 C7 4 7 4 9 7 C7.88625 7.474375 6.7725 7.94875 5.625 8.4375 C3.73289006 9.25306463 1.84287291 10.07856355 0 11 C-2.20703125 9.85546875 -2.20703125 9.85546875 -4.8125 8.1875 C-8.13610297 6.07065151 -11.29781791 4.36256253 -15 3 C-15 2.34 -15 1.68 -15 1 C-14.4225 1.165 -13.845 1.33 -13.25 1.5 C-9.83570843 2.25873146 -7.30568539 2.10189513 -4 1 C-3.34 1.66 -2.68 2.32 -2 3 C-2.99 3.33 -3.98 3.66 -5 4 C-5.33 4.66 -5.66 5.32 -6 6 C-3.69 6 -1.38 6 1 6 C0.67 4.02 0.34 2.04 0 0 Z " fill="#231742" transform="translate(232,143)"/>
<path d="M0 0 C-1.7288805 1.41701589 -3.45811746 2.83359686 -5.1875 4.25 C-6.63189453 5.43335938 -6.63189453 5.43335938 -8.10546875 6.640625 C-9.53826172 7.80851562 -9.53826172 7.80851562 -11 9 C-11.89976563 9.74121094 -12.79953125 10.48242188 -13.7265625 11.24609375 C-15.93598071 12.95061055 -17.24776468 13.715286 -20 14 C-20.66 13.67 -21.32 13.34 -22 13 C-20.80298998 9.40896995 -19.88098551 9.01677407 -16.75 7.0625 C-14.07427582 5.35513314 -11.60398371 3.68146516 -9.125 1.6875 C-5.84337986 -0.91849246 -3.88586795 -1.20595902 0 0 Z " fill="#84449B" transform="translate(128,296)"/>
<path d="M0 0 C0.66 0 1.32 0 2 0 C2 0.99 2 1.98 2 3 C2.66 3.33 3.32 3.66 4 4 C2.64531705 8.87685861 0.28324091 10.48592381 -4 13 C-4.28875 12.360625 -4.5775 11.72125 -4.875 11.0625 C-5.82823451 8.84793921 -5.82823451 8.84793921 -8 8 C-7.67 7.01 -7.34 6.02 -7 5 C-5 4.33333333 -3 3.66666667 -1 3 C-0.67 2.01 -0.34 1.02 0 0 Z " fill="#1C113D" transform="translate(138,145)"/>
<path d="M0 0 C1.485 0.99 1.485 0.99 3 2 C3.99 2 4.98 2 6 2 C6.33 2.99 6.66 3.98 7 5 C8.62332967 6.38576923 10.28724465 7.72641268 12 9 C10.8553125 8.938125 10.8553125 8.938125 9.6875 8.875 C6.77281584 8.77919176 6.77281584 8.77919176 4 11 C1.3125 10.125 1.3125 10.125 -1 9 C-1.09765625 2.84765625 -1.09765625 2.84765625 -1 1 C-0.67 0.67 -0.34 0.34 0 0 Z " fill="#1E103E" transform="translate(100,305)"/>
<path d="M0 0 C1.65 0 3.3 0 5 0 C4.67 0.99 4.34 1.98 4 3 C7.465 2.505 7.465 2.505 11 2 C5.54447311 7.45552689 -2.90395095 8.22024871 -10.27734375 8.27685547 C-13.85522425 8.23799618 -17.42466111 8.14301356 -21 8 C-21 7.67 -21 7.34 -21 7 C-19.57107422 6.92652344 -19.57107422 6.92652344 -18.11328125 6.8515625 C-16.85902344 6.77679688 -15.60476562 6.70203125 -14.3125 6.625 C-12.45044922 6.52058594 -12.45044922 6.52058594 -10.55078125 6.4140625 C-7.27831155 6.03245437 -4.9145089 5.50011487 -2 4 C-0.65589738 1.98264795 -0.65589738 1.98264795 0 0 Z " fill="#C14481" transform="translate(211,290)"/>
<path d="M0 0 C0.33 0.66 0.66 1.32 1 2 C-0.19427286 4.73650671 -1.44471772 7.35238083 -2.8125 10 C-3.18181641 10.73734375 -3.55113281 11.4746875 -3.93164062 12.234375 C-6.71898191 17.71898191 -6.71898191 17.71898191 -9 20 C-8.34 17.03 -7.68 14.06 -7 11 C-7.66 11.66 -8.32 12.32 -9 13 C-9.99 13.495 -9.99 13.495 -11 14 C-11.66 13.34 -12.32 12.68 -13 12 C-11.58653438 10.55935235 -10.16908789 9.12260985 -8.75 7.6875 C-7.96109375 6.88699219 -7.1721875 6.08648437 -6.359375 5.26171875 C-4.32605933 3.31256349 -2.29398922 1.62578594 0 0 Z " fill="#7A1A78" transform="translate(139,163)"/>
<path d="M0 0 C0.66 0.33 1.32 0.66 2 1 C1.67515625 1.87398437 1.67515625 1.87398437 1.34375 2.765625 C-2.3221825 13.55975957 -2.39311403 25.08810104 2.6875 35.4375 C3.120625 36.283125 3.55375 37.12875 4 38 C3.67 38.66 3.34 39.32 3 40 C1.68 40 0.36 40 -1 40 C-0.95875 38.948125 -0.9175 37.89625 -0.875 36.8125 C-0.74083581 33.18965028 -0.74083581 33.18965028 -1.98828125 30.91015625 C-3.51589126 26.51606568 -3.32853482 22.24302877 -3.3125 17.625 C-3.32861328 16.70460937 -3.34472656 15.78421875 -3.36132812 14.8359375 C-3.36542148 9.10524023 -2.65792157 5.0914276 0 0 Z " fill="#C44A88" transform="translate(146,211)"/>
<path d="M0 0 C0.66 0.66 1.32 1.32 2 2 C1.319375 2.103125 0.63875 2.20625 -0.0625 2.3125 C-7.07395259 3.95347827 -10.83122153 6.31530208 -15 12 C-15.99 11.34 -16.98 10.68 -18 10 C-12.72806329 3.38743333 -9.07642775 -0.85626677 0 0 Z " fill="#6C3A7C" transform="translate(740,136)"/>
<path d="M0 0 C0.66 0.33 1.32 0.66 2 1 C-0.52054855 3.70058773 -2.69271121 5.40337783 -6 7 C-6.33 7.66 -6.66 8.32 -7 9 C-5.68 9.66 -4.36 10.32 -3 11 C-3.33 12.65 -3.66 14.3 -4 16 C-4.99 16.33 -5.98 16.66 -7 17 C-7 15.35 -7 13.7 -7 12 C-7.99 11.67 -8.98 11.34 -10 11 C-9.64701919 8.0991395 -9.11271704 7.10483324 -6.93359375 5.078125 C-6.10988281 4.47484375 -5.28617188 3.8715625 -4.4375 3.25 C-3.61121094 2.63640625 -2.78492188 2.0228125 -1.93359375 1.390625 C-1.29550781 0.93171875 -0.65742188 0.4728125 0 0 Z " fill="#221743" transform="translate(137,144)"/>
<path d="M0 0 C0.66 0.33 1.32 0.66 2 1 C0.96354537 3.78954362 0.25942414 4.84762609 -2.34765625 6.37890625 C-3.24355469 6.76949219 -4.13945312 7.16007812 -5.0625 7.5625 C-7.74149582 8.68083097 -7.74149582 8.68083097 -10 10 C-10.33 10.99 -10.66 11.98 -11 13 C-11.99 12.67 -12.98 12.34 -14 12 C-14 11.34 -14 10.68 -14 10 C-15.98 10.33 -17.96 10.66 -20 11 C-20 10.34 -20 9.68 -20 9 C-18.72125 8.79375 -17.4425 8.5875 -16.125 8.375 C-10.36309971 7.12201533 -4.22416093 4.22416093 0 0 Z " fill="#260B49" transform="translate(213,338)"/>
<path d="M0 0 C0.66 0.33 1.32 0.66 2 1 C0.52635801 5.51239341 -3.00863434 7.10481551 -6.9375 9.25 C-7.57107422 9.61351562 -8.20464844 9.97703125 -8.85742188 10.3515625 C-11.76316549 11.97706787 -13.61995588 13 -17 13 C-5.78678577 2.53952469 -5.78678577 2.53952469 0 0 Z " fill="#EDDFEC" transform="translate(148,148)"/>
<path d="M0 0 C0.33 0 0.66 0 1 0 C1 7.92 1 15.84 1 24 C2.65 23.67 4.3 23.34 6 23 C6.33 22.34 6.66 21.68 7 21 C8.32 21.33 9.64 21.66 11 22 C7.0205731 25.628301 5.70053971 26.04991005 0 27 C0 18.09 0 9.18 0 0 Z " fill="#551871" transform="translate(244,308)"/>
<path d="M0 0 C0.66 0 1.32 0 2 0 C1.5020163 3.73487777 1.12508244 5.81237635 -1 9 C-1.66 9 -2.32 9 -3 9 C-3.391875 9.886875 -3.78375 10.77375 -4.1875 11.6875 C-6.06636955 15.12129608 -8.13295455 17.36541769 -11 20 C-9.4095488 15.6366679 -7.25824078 11.75213615 -4.9375 7.75 C-4.57333984 7.11320312 -4.20917969 6.47640625 -3.83398438 5.8203125 C-1.14074248 1.14074248 -1.14074248 1.14074248 0 0 Z " fill="#74438B" transform="translate(155,311)"/>
<path d="M0 0 C0.9075 0.103125 1.815 0.20625 2.75 0.3125 C3.69721072 2.91732949 4.05222393 4.61924701 2.92578125 7.203125 C1.92063275 8.93832873 0.8393855 10.62890423 -0.25 12.3125 C-0.91 11.6525 -1.57 10.9925 -2.25 10.3125 C-1.26 8.0025 -0.27 5.6925 0.75 3.3125 C-0.19875 3.828125 -1.1475 4.34375 -2.125 4.875 C-3.15625 5.349375 -4.1875 5.82375 -5.25 6.3125 C-5.91 5.9825 -6.57 5.6525 -7.25 5.3125 C-4.05 0.38942308 -4.05 0.38942308 0 0 Z " fill="#290B4B" transform="translate(152.25,304.6875)"/>
<path d="M0 0 C2.86724686 0.57344937 3.8614515 0.8614515 6 3 C6 3.99 6 4.98 6 6 C4.68 6 3.36 6 2 6 C2.33 7.65 2.66 9.3 3 11 C1.02 10.34 -0.96 9.68 -3 9 C-2.5020163 5.26512223 -2.12508244 3.18762365 0 0 Z " fill="#190E3A" transform="translate(299,257)"/>
<path d="M0 0 C2.45814961 2.07997274 2.35569242 4.2779628 2.625 7.375 C1.635 7.87 1.635 7.87 0.625 8.375 C0.295 6.725 -0.035 5.075 -0.375 3.375 C-4.335 3.045 -8.295 2.715 -12.375 2.375 C-12.375 3.035 -12.375 3.695 -12.375 4.375 C-13.695 4.045 -15.015 3.715 -16.375 3.375 C-10.7454211 -0.30145969 -6.80187712 -1.78996766 0 0 Z " fill="#430D3F" transform="translate(246.375,250.625)"/>
<path d="M0 0 C0.33 0 0.66 0 1 0 C1.09765625 6.15234375 1.09765625 6.15234375 1 8 C0.67 8.33 0.34 8.66 0 9 C-0.42340583 14.82183016 0.47655533 19.21900777 2.44140625 24.703125 C3.05360494 27.22041753 2.83797289 28.58042266 2 31 C-2.19404691 21.88250671 -3.62672838 12.10023142 -1 2.25 C-0.67 1.5075 -0.34 0.765 0 0 Z " fill="#430C41" transform="translate(146,216)"/>
<path d="M0 0 C0.99 0.33 1.98 0.66 3 1 C2.236875 1.598125 1.47375 2.19625 0.6875 2.8125 C-1.89289747 4.77995502 -1.89289747 4.77995502 -3.3515625 6.578125 C-6.06822616 8.92140834 -9.2578959 8.83470917 -12.72265625 9.27734375 C-15.17550992 9.78687469 -15.17550992 9.78687469 -16.30859375 12.06640625 C-16.53675781 12.70449219 -16.76492187 13.34257812 -17 14 C-17.3125 11.6875 -17.3125 11.6875 -17 9 C-14.46265009 6.98504566 -12.14247937 6.04547214 -9.0625 5.0625 C-5.83672866 4.09451321 -5.83672866 4.09451321 -2.8125 1.8125 C-1.884375 1.214375 -0.95625 0.61625 0 0 Z " fill="#3C0C3D" transform="translate(162,196)"/>
<path d="M0 0 C0.69140625 1.68359375 0.69140625 1.68359375 1 4 C-1.96232522 9.99090052 -5.63349075 14.63106632 -12 17 C-12.66 17.66 -13.32 18.32 -14 19 C-14.66 18.34 -15.32 17.68 -16 17 C-15.48050781 16.64808594 -14.96101562 16.29617188 -14.42578125 15.93359375 C-9.46656543 12.42272562 -6.36058442 9.04087663 -3 4 C-2.34 3.67 -1.68 3.34 -1 3 C-0.67 2.01 -0.34 1.02 0 0 Z " fill="#2B0B4D" transform="translate(266,316)"/>
<path d="M0 0 C2.31 0.66 4.62 1.32 7 2 C7 2.66 7 3.32 7 4 C6.01 4 5.02 4 4 4 C4 4.99 4 5.98 4 7 C2.125 7.625 2.125 7.625 0 8 C-0.66 7.34 -1.32 6.68 -2 6 C-2.33 7.65 -2.66 9.3 -3 11 C-3.33 11 -3.66 11 -4 11 C-4.36630156 7.06225823 -4.30233203 5.43460229 -2 2.125 C-1.34 1.42375 -0.68 0.7225 0 0 Z " fill="#2F264D" transform="translate(102,300)"/>
<path d="M0 0 C0.66 0.33 1.32 0.66 2 1 C-0.22547326 3.43855049 -1.9900231 4.89071619 -5.33300781 5.25244141 C-8.1120227 5.20470436 -10.85471606 5.03706661 -13.625 4.8125 C-14.57890625 4.75513672 -15.5328125 4.69777344 -16.515625 4.63867188 C-20.22997986 4.39540779 -23.45457878 4.18180707 -27 3 C-27 2.34 -27 1.68 -27 1 C-26.33871094 1.16113281 -25.67742187 1.32226562 -24.99609375 1.48828125 C-21.34059802 2.11262276 -17.75869398 2.18406807 -14.0625 2.1875 C-13.37220703 2.19974609 -12.68191406 2.21199219 -11.97070312 2.22460938 C-7.56229717 2.23714513 -4.12842769 1.45817789 0 0 Z " fill="#27094B" transform="translate(139,313)"/>
<path d="M0 0 C2.89073687 1.31913538 5.044397 2.78743667 7.375 4.9375 C10.3662998 7.5799225 13.32364951 9.38599247 17 11 C13.16714736 12.47417409 10.74123068 11.38262873 7 10 C6.34 10 5.68 10 5 10 C4.67 8.02 4.34 6.04 4 4 C2.68 4 1.36 4 0 4 C0 2.68 0 1.36 0 0 Z " fill="#C34786" transform="translate(151,253)"/>
<path d="M0 0 C0.66 1.32 1.32 2.64 2 4 C3.5159375 3.7834375 3.5159375 3.7834375 5.0625 3.5625 C10.53125 2.78125 10.53125 2.78125 16 2 C9.49276722 7.53114786 0.27540131 8.477427 -8 8 C-8 7.67 -8 7.34 -8 7 C-5.69 7 -3.38 7 -1 7 C-0.67 4.69 -0.34 2.38 0 0 Z " fill="#5C1E77" transform="translate(148,336)"/>
<path d="M0 0 C5.875 0.875 5.875 0.875 7 2 C7.08726223 3.78071246 7.10699041 5.5648314 7.09765625 7.34765625 C7.09443359 8.42724609 7.09121094 9.50683594 7.08789062 10.61914062 C7.07951172 11.75544922 7.07113281 12.89175781 7.0625 14.0625 C7.05798828 15.20267578 7.05347656 16.34285156 7.04882812 17.51757812 C7.03699747 20.34510351 7.0205141 23.1725264 7 26 C6.67 26 6.34 26 6 26 C6 18.41 6 10.82 6 3 C3.69 3 1.38 3 -1 3 C-0.67 2.01 -0.34 1.02 0 0 Z " fill="#2F094F" transform="translate(237,306)"/>
<path d="M0 0 C0.33 1.32 0.66 2.64 1 4 C0.34 4 -0.32 4 -1 4 C-1.3403125 5.36125 -1.3403125 5.36125 -1.6875 6.75 C-3.21702123 10.5373859 -4.56937211 11.84588481 -8 14 C-10.8125 14.75 -10.8125 14.75 -13 15 C-12.319375 14.34 -11.63875 13.68 -10.9375 13 C-4.76039257 7.02832835 -4.76039257 7.02832835 0 0 Z " fill="#BD4583" transform="translate(214,247)"/>
<path d="M0 0 C1.99954746 -0.04254356 4.00041636 -0.04080783 6 0 C7 1 7 1 7.0625 3.5625 C7.041875 4.366875 7.02125 5.17125 7 6 C4.36 5.67 1.72 5.34 -1 5 C-0.67 3.35 -0.34 1.7 0 0 Z " fill="#190C3B" transform="translate(240,253)"/>
<path d="M0 0 C1.32 0 2.64 0 4 0 C2.47987323 5.40489519 -1.27385218 8.98492628 -5 13 C-5.33 12.01 -5.66 11.02 -6 10 C-5.03542166 8.64082143 -4.03145371 7.30915279 -3 6 C-2.29485154 3.85266073 -2.29485154 3.85266073 -2 2 C-1.34 2 -0.68 2 0 2 C0 1.34 0 0.68 0 0 Z " fill="#271F42" transform="translate(270,320)"/>
<path d="M0 0 C-1.98 0.66 -3.96 1.32 -6 2 C-6 2.66 -6 3.32 -6 4 C-8.85160391 4.81434143 -11.36626131 5.11881242 -14.328125 5.09765625 C-15.12734375 5.09443359 -15.9265625 5.09121094 -16.75 5.08789062 C-17.575 5.07951172 -18.4 5.07113281 -19.25 5.0625 C-20.09046875 5.05798828 -20.9309375 5.05347656 -21.796875 5.04882812 C-23.86461401 5.03707961 -25.93231624 5.01914522 -28 5 C-28 4.67 -28 4.34 -28 4 C-27.12859375 3.97421875 -26.2571875 3.9484375 -25.359375 3.921875 C-17.7882748 3.56134642 -11.40402026 2.48551588 -4.328125 -0.2578125 C-2 -1 -2 -1 0 0 Z " fill="#3F0D3F" transform="translate(222,294)"/>
<path d="M0 0 C-1.64566523 5.68502535 -4.29032784 10.76681636 -7 16 C-7.33 16 -7.66 16 -8 16 C-7.50523351 10.35966205 -6.58054378 6.05786581 -4 1 C-2 0 -2 0 0 0 Z " fill="#B7468B" transform="translate(117,186)"/>
<path d="M0 0 C1.32 0.33 2.64 0.66 4 1 C3.67 2.32 3.34 3.64 3 5 C3.66 5.33 4.32 5.66 5 6 C2.36 6 -0.28 6 -3 6 C-3.66 4.35 -4.32 2.7 -5 1 C-3.35 1 -1.7 1 0 1 C0 0.67 0 0.34 0 0 Z " fill="#180F3A" transform="translate(141,345)"/>
<path d="M0 0 C-6.2160052 4.49853953 -10.9477674 4.36399239 -18.4375 3.75 C-19.45521484 3.68425781 -20.47292969 3.61851562 -21.52148438 3.55078125 C-24.0163658 3.38679843 -26.50802029 3.2027503 -29 3 C-29 2.67 -29 2.34 -29 2 C-27.081875 1.92652344 -27.081875 1.92652344 -25.125 1.8515625 C-23.41664778 1.77647009 -21.70831541 1.70092513 -20 1.625 C-19.16082031 1.5940625 -18.32164062 1.563125 -17.45703125 1.53125 C-13.32241052 1.33894206 -9.50518896 0.97578263 -5.5 -0.1015625 C-2 -1 -2 -1 0 0 Z " fill="#4C136B" transform="translate(221,304)"/>
<path d="M0 0 C-1.55615009 1.29930979 -3.1202168 2.58914138 -4.6875 3.875 C-5.55761719 4.59429687 -6.42773438 5.31359375 -7.32421875 6.0546875 C-9.8477646 7.88932376 -12.06338486 8.99467229 -15 10 C-15 9.01 -15 8.02 -15 7 C-14.21625 6.7525 -13.4325 6.505 -12.625 6.25 C-9.88023048 5.27318667 -9.88023048 5.27318667 -9 3 C-8 1 -8 1 -5.5625 -0.3125 C-3 -1 -3 -1 0 0 Z " fill="#270E47" transform="translate(121,297)"/>
<path d="M0 0 C0.66 0.33 1.32 0.66 2 1 C1.01 1.33 0.02 1.66 -1 2 C-1 2.66 -1 3.32 -1 4 C-14.8627451 9.44607843 -14.8627451 9.44607843 -22 9 C-19.13326488 7.46143115 -16.38631744 6.47400313 -13.25 5.625 C-9.77478634 4.62767537 -6.69519196 3.44088626 -3.5 1.75 C-1.7675 0.88375 -1.7675 0.88375 0 0 Z " fill="#2E084D" transform="translate(170,335)"/>
<path d="M0 0 C0.66 0 1.32 0 2 0 C2 0.66 2 1.32 2 2 C3.32 1.67 4.64 1.34 6 1 C4.45476739 4.09046522 1.98213945 4.36269298 -1.1875 5.5625 C-2.87939453 6.21412109 -2.87939453 6.21412109 -4.60546875 6.87890625 C-7.75509265 7.91911575 -10.71920356 8.55691823 -14 9 C-14 8.34 -14 7.68 -14 7 C-13.39671875 6.80664062 -12.7934375 6.61328125 -12.171875 6.4140625 C-11.37265625 6.15367187 -10.5734375 5.89328125 -9.75 5.625 C-8.96109375 5.36976563 -8.1721875 5.11453125 -7.359375 4.8515625 C-2.8693116 3.41009052 -2.8693116 3.41009052 0 0 Z " fill="#2A0A4A" transform="translate(224,297)"/>
<path d="M0 0 C0.33 0.99 0.66 1.98 1 3 C0.34 3 -0.32 3 -1 3 C-1.2475 3.94875 -1.495 4.8975 -1.75 5.875 C-3 9 -3 9 -5.125 10.375 C-5.74375 10.58125 -6.3625 10.7875 -7 11 C-7.33 10.01 -7.66 9.02 -8 8 C-7.34 8 -6.68 8 -6 8 C-5.938125 7.236875 -5.87625 6.47375 -5.8125 5.6875 C-5 3 -5 3 -2.4375 1.1875 C-1.633125 0.795625 -0.82875 0.40375 0 0 Z " fill="#DD488A" transform="translate(127,169)"/>
<path d="M0 0 C2.1875 0.3125 2.1875 0.3125 4 1 C4 1.66 4 2.32 4 3 C-0.73898266 5.45153075 -5.12062333 5.23154206 -10.3125 5.125 C-11.14845703 5.11597656 -11.98441406 5.10695313 -12.84570312 5.09765625 C-14.89725969 5.07420989 -16.94866777 5.03834266 -19 5 C-19 4.67 -19 4.34 -19 4 C-17.87980469 3.96261719 -16.75960938 3.92523438 -15.60546875 3.88671875 C-14.1327791 3.82105743 -12.66012434 3.75461014 -11.1875 3.6875 C-10.44951172 3.66494141 -9.71152344 3.64238281 -8.95117188 3.61914062 C-4.70532791 3.48169965 -4.70532791 3.48169965 -1.125 1.4375 C-0.75375 0.963125 -0.3825 0.48875 0 0 Z " fill="#C84A86" transform="translate(279,274)"/>
<path d="M0 0 C2 3 2 3 1.625 5.1875 C1.41875 5.785625 1.2125 6.38375 1 7 C-1.31 6.67 -3.62 6.34 -6 6 C-4.90218919 2.70656758 -3.7827394 0 0 0 Z " fill="#170D39" transform="translate(232,143)"/>
<path d="M0 0 C0.5775 0.165 1.155 0.33 1.75 0.5 C5.16429157 1.25873146 7.69431461 1.10189513 11 0 C11.66 0.66 12.32 1.32 13 2 C12.01 2.33 11.02 2.66 10 3 C9.67 3.66 9.34 4.32 9 5 C10.32 5.33 11.64 5.66 13 6 C12.67 6.66 12.34 7.32 12 8 C8.04 6.02 4.08 4.04 0 2 C0 1.34 0 0.68 0 0 Z " fill="#2E2448" transform="translate(217,144)"/>
<path d="M0 0 C0.80824219 0.10183594 1.61648437 0.20367187 2.44921875 0.30859375 C3.06410156 0.39238281 3.67898437 0.47617187 4.3125 0.5625 C4.3125 0.8925 4.3125 1.2225 4.3125 1.5625 C3.28189453 1.61857422 3.28189453 1.61857422 2.23046875 1.67578125 C1.32941406 1.74152344 0.42835938 1.80726563 -0.5 1.875 C-1.39332031 1.93300781 -2.28664062 1.99101562 -3.20703125 2.05078125 C-6.04536495 2.63632726 -6.76315358 3.50389685 -8.6875 5.5625 C-11.375 5.25 -11.375 5.25 -13.6875 4.5625 C-10.6875 2.5625 -10.6875 2.5625 -7.6875 2.5625 C-7.6875 1.9025 -7.6875 1.2425 -7.6875 0.5625 C-4.59271121 -0.46909626 -3.16118607 -0.41232862 0 0 Z " fill="#4A1043" transform="translate(242.6875,258.4375)"/>
<path d="M0 0 C1.8871875 0.061875 1.8871875 0.061875 3.8125 0.125 C4.1425 0.785 4.4725 1.445 4.8125 2.125 C2.9253125 2.24875 2.9253125 2.24875 1 2.375 C-2.52561212 2.79057143 -2.52561212 2.79057143 -5.1875 5.1875 C-5.5175 5.826875 -5.8475 6.46625 -6.1875 7.125 C-6.8475 6.795 -7.5075 6.465 -8.1875 6.125 C-7.875 4.25 -7.875 4.25 -7.1875 2.125 C-4.09861478 0.06574319 -3.47814073 -0.1140374 0 0 Z " fill="#551871" transform="translate(251.1875,284.875)"/>
<path d="M0 0 C1.32 0.33 2.64 0.66 4 1 C3 4 3 4 0 6 C-0.73343428 9.06556598 -0.73343428 9.06556598 -1 12 C-1.33 12 -1.66 12 -2 12 C-2.66 9.36 -3.32 6.72 -4 4 C-3.01 3.67 -2.02 3.34 -1 3 C-0.67 2.01 -0.34 1.02 0 0 Z " fill="#CD4788" transform="translate(229,250)"/>
<path d="M0 0 C2.125 0.375 2.125 0.375 4 1 C3.67 1.66 3.34 2.32 3 3 C3.66 3 4.32 3 5 3 C5 3.66 5 4.32 5 5 C3.02 5.66 1.04 6.32 -1 7 C-1.625 4.625 -1.625 4.625 -2 2 C-1.34 1.34 -0.68 0.68 0 0 Z " fill="#281B4A" transform="translate(549,338)"/>
<path d="M0 0 C0.66 0 1.32 0 2 0 C2 0.66 2 1.32 2 2 C2.99 2.33 3.98 2.66 5 3 C5.33 3.99 5.66 4.98 6 6 C3.36 6.33 0.72 6.66 -2 7 C-1.125 2.25 -1.125 2.25 0 0 Z " fill="#2B1E48" transform="translate(329,200)"/>
<path d="M0 0 C2.31 1.98 4.62 3.96 7 6 C5.02 6.99 5.02 6.99 3 8 C1.68 7.01 0.36 6.02 -1 5 C-0.67 3.35 -0.34 1.7 0 0 Z " fill="#231A42" transform="translate(279,187)"/>
<path d="M0 0 C-1.98 2.31 -3.96 4.62 -6 7 C-6.66 5.68 -7.32 4.36 -8 3 C-7.34 3 -6.68 3 -6 3 C-6 2.01 -6 1.02 -6 0 C-4 -1 -4 -1 0 0 Z " fill="#291F46" transform="translate(232,333)"/>
<path d="M0 0 C1.8125 0.1875 1.8125 0.1875 4 1 C5.8125 3.4375 5.8125 3.4375 7 6 C6.67 6.66 6.34 7.32 6 8 C5.34 8 4.68 8 4 8 C4 7.34 4 6.68 4 6 C3.360625 5.896875 2.72125 5.79375 2.0625 5.6875 C1.381875 5.460625 0.70125 5.23375 0 5 C-0.33 4.01 -0.66 3.02 -1 2 C-0.67 1.34 -0.34 0.68 0 0 Z " fill="#6F3583" transform="translate(739,311)"/>
<path d="M0 0 C0.66 0.33 1.32 0.66 2 1 C1.8125 2.875 1.8125 2.875 1 5 C-1.4375 6.3125 -1.4375 6.3125 -4 7 C-4.66 6.67 -5.32 6.34 -6 6 C-5 3 -5 3 -2.5625 1.25 C-1.716875 0.8375 -0.87125 0.425 0 0 Z " fill="#79428F" transform="translate(112,303)"/>
<path d="M0 0 C1.4589426 0.47730838 2.91713496 0.95691042 4.375 1.4375 C5.18710938 1.70433594 5.99921875 1.97117187 6.8359375 2.24609375 C9 3 9 3 11 4 C11.625 6.0625 11.625 6.0625 12 8 C6.80421104 6.63919813 3.86388964 4.58789752 0 1 C0 0.67 0 0.34 0 0 Z " fill="#390B3E" transform="translate(156,256)"/>
<path d="M0 0 C2.09749995 2.35968744 2.96905704 3.54616994 3.1875 6.75 C3.125625 7.4925 3.06375 8.235 3 9 C2.01 9 1.02 9 0 9 C0.33 8.34 0.66 7.68 1 7 C0.34 6.67 -0.32 6.34 -1 6 C-1 6.66 -1 7.32 -1 8 C-1.66 8 -2.32 8 -3 8 C-1.125 2.25 -1.125 2.25 0 0 Z " fill="#2E234D" transform="translate(427,237)"/>
<path d="M0 0 C7.71428571 4 7.71428571 4 9 8 C5.92346162 6.97448721 5.19203004 6.19203004 3 4 C2.01 3.67 1.02 3.34 0 3 C-0.33 3.66 -0.66 4.32 -1 5 C-1.66 4.01 -2.32 3.02 -3 2 C-2.01 1.34 -1.02 0.68 0 0 Z " fill="#6A357A" transform="translate(742,137)"/>
<path d="M0 0 C2 1.5 2 1.5 4 4 C4.35800135 6.75871627 4.18660165 9.20097524 4 12 C3.34 12 2.68 12 2 12 C1.855625 10.948125 1.71125 9.89625 1.5625 8.8125 C1.12473034 5.84539451 0.62195134 2.93205634 0 0 Z " fill="#2C084C" transform="translate(128,274)"/>
<path d="M0 0 C0.66 1.32 1.32 2.64 2 4 C-0.84936103 7.00765886 -3.23511958 9.27845212 -7 11 C-6.57847656 10.45730469 -6.15695313 9.91460937 -5.72265625 9.35546875 C-5.17480469 8.64003906 -4.62695312 7.92460937 -4.0625 7.1875 C-3.51722656 6.47980469 -2.97195312 5.77210938 -2.41015625 5.04296875 C-0.83143752 2.95874948 -0.83143752 2.95874948 0 0 Z " fill="#2F284C" transform="translate(121,280)"/>
<path d="M0 0 C3.32993034 3.82941989 5.05324525 8.37522222 7 13 C6.01 12.67 5.02 12.34 4 12 C2.8125 8.9375 2.8125 8.9375 2 6 C1.34 6 0.68 6 0 6 C0 4.02 0 2.04 0 0 Z " fill="#2A074A" transform="translate(112,250)"/>
<path d="M0 0 C-0.57344937 2.86724686 -0.8614515 3.8614515 -3 6 C-5.625 6.125 -5.625 6.125 -8 6 C-8.66 4.68 -9.32 3.36 -10 2 C-9.01 2.33 -8.02 2.66 -7 3 C-7 3.66 -7 4.32 -7 5 C-5.824375 3.7625 -5.824375 3.7625 -4.625 2.5 C-2 0 -2 0 0 0 Z " fill="#633173" transform="translate(678,210)"/>
<path d="M0 0 C1.32 0.66 2.64 1.32 4 2 C3.34 2.66 2.68 3.32 2 4 C1.34 3.67 0.68 3.34 0 3 C0 3.99 0 4.98 0 6 C0.66 6 1.32 6 2 6 C1.67 7.32 1.34 8.64 1 10 C1 9.34 1 8.68 1 8 C0.01 7.67 -0.98 7.34 -2 7 C-2.125 4.625 -2.125 4.625 -2 2 C-1.34 1.34 -0.68 0.68 0 0 Z " fill="#390B3F" transform="translate(233,188)"/>
<path d="M0 0 C3.375 -0.125 3.375 -0.125 7 0 C7.66 0.66 8.32 1.32 9 2 C7.8553125 2.2165625 7.8553125 2.2165625 6.6875 2.4375 C3.91827092 2.9632594 3.91827092 2.9632594 1 4 C0.34 3.67 -0.32 3.34 -1 3 C-0.67 2.01 -0.34 1.02 0 0 Z " fill="#723E83" transform="translate(733,136)"/>
<path d="M0 0 C1.32 0.33 2.64 0.66 4 1 C0.71195019 3.91227269 -1.59885603 5.49701212 -6 6 C-6 5.01 -6 4.02 -6 3 C-5.195625 2.87625 -4.39125 2.7525 -3.5625 2.625 C-2.716875 2.41875 -1.87125 2.2125 -1 2 C-0.67 1.34 -0.34 0.68 0 0 Z " fill="#5D1E7A" transform="translate(251,329)"/>
<path d="M0 0 C1.32 0 2.64 0 4 0 C3.67 0.99 3.34 1.98 3 3 C2.34 3 1.68 3 1 3 C1.66 4.32 2.32 5.64 3 7 C1.68 7 0.36 7 -1 7 C-1.04254356 5.00045254 -1.04080783 2.99958364 -1 1 C-0.67 0.67 -0.34 0.34 0 0 Z " fill="#2E0B3B" transform="translate(229,255)"/>
<path d="M0 0 C7 3.5 7 3.5 14 7 C10.7 6.67 7.4 6.34 4 6 C4 5.34 4 4.68 4 4 C3.34 4 2.68 4 2 4 C2 3.34 2 2.68 2 2 C1.34 2 0.68 2 0 2 C0 1.34 0 0.68 0 0 Z " fill="#C44988" transform="translate(244,239)"/>
<path d="M0 0 C0.66 0 1.32 0 2 0 C0.33333333 3.33333333 -1.33333333 6.66666667 -3 10 C-3.66 10 -4.32 10 -5 10 C-5.33 10.66 -5.66 11.32 -6 12 C-6.33 11.34 -6.66 10.68 -7 10 C-5.88321917 8.3278148 -4.75633648 6.66237197 -3.625 5 C-2.99851562 4.071875 -2.37203125 3.14375 -1.7265625 2.1875 C-1.15679688 1.465625 -0.58703125 0.74375 0 0 Z " fill="#693679" transform="translate(720,149)"/>
<path d="M0 0 C0.66 0.33 1.32 0.66 2 1 C0.96508351 3.82249951 0.30084735 4.83374226 -2.375 6.3125 C-5 7 -5 7 -9 6 C-6.03 4.02 -3.06 2.04 0 0 Z " fill="#300A50" transform="translate(213,338)"/>
<path d="M0 0 C3 3.625 3 3.625 3 7 C3.99 7.33 4.98 7.66 6 8 C6 9.65 6 11.3 6 13 C2.67467889 10.30807339 1.47545057 6.93453485 0 3 C0 2.01 0 1.02 0 0 Z " fill="#6A397B" transform="translate(782,317)"/>
<path d="M0 0 C2.22825644 2.22825644 2.69239369 3.65761628 3.625 6.625 C4.01558594 7.85089844 4.01558594 7.85089844 4.4140625 9.1015625 C4.60742188 9.72804687 4.80078125 10.35453125 5 11 C3 11 3 11 1.375 10 C-0.82559052 6.79914107 -0.18792122 3.82106483 0 0 Z " fill="#7E1A7E" transform="translate(131,240)"/>
<path d="M0 0 C0.33 0.66 0.66 1.32 1 2 C0.22265625 3.7265625 0.22265625 3.7265625 -0.9375 5.625 C-1.618125 6.73875 -2.29875 7.8525 -3 9 C-3.33 8.34 -3.66 7.68 -4 7 C-4.99 6.67 -5.98 6.34 -7 6 C-4.69 4.02 -2.38 2.04 0 0 Z " fill="#911F74" transform="translate(139,163)"/>
<path d="M0 0 C0.66 0.33 1.32 0.66 2 1 C-0.52054855 3.70058773 -2.69271121 5.40337783 -6 7 C-6.33 7.66 -6.66 8.32 -7 9 C-7.99 8.67 -8.98 8.34 -10 8 C-6.7 5.36 -3.4 2.72 0 0 Z " fill="#2E2646" transform="translate(137,144)"/>
<path d="M0 0 C0.66 0 1.32 0 2 0 C1.5020163 3.73487777 1.12508244 5.81237635 -1 9 C-1.33 8.67 -1.66 8.34 -2 8 C-1.28 1.28 -1.28 1.28 0 0 Z " fill="#7D3F95" transform="translate(155,311)"/>
<path d="M0 0 C0.99 0 1.98 0 3 0 C1.52307692 5.66153846 1.52307692 5.66153846 -1.125 7.375 C-2.053125 7.684375 -2.053125 7.684375 -3 8 C-3 6.68 -3 5.36 -3 4 C-2.01 4 -1.02 4 0 4 C0 2.68 0 1.36 0 0 Z " fill="#E8D5E8" transform="translate(293,262)"/>
<path d="M0 0 C0.33 0 0.66 0 1 0 C1.63019694 8.03501094 1.63019694 8.03501094 -1 12.0625 C-1.66 12.701875 -2.32 13.34125 -3 14 C-2.40380045 9.13103697 -1.43023178 4.67209049 0 0 Z " fill="#393253" transform="translate(102,188)"/>
<path d="M0 0 C1.2065625 0.0309375 1.2065625 0.0309375 2.4375 0.0625 C2.1075 0.7225 1.7775 1.3825 1.4375 2.0625 C0.7775 2.0625 0.1175 2.0625 -0.5625 2.0625 C-0.8925 4.0425 -1.2225 6.0225 -1.5625 8.0625 C-3.5625 6.0625 -3.5625 6.0625 -3.75 3.5 C-3.4919783 0.14571793 -3.38163728 0.08247896 0 0 Z " fill="#260749" transform="translate(158.5625,274.9375)"/>
<path d="M0 0 C3.96 0 7.92 0 12 0 C12.33 0.99 12.66 1.98 13 3 C12.484375 2.835 11.96875 2.67 11.4375 2.5 C7.12290849 1.61495559 3.17873852 1.60708716 -1 3 C-0.67 2.01 -0.34 1.02 0 0 Z " fill="#C64C8B" transform="translate(235,249)"/>
<path d="M0 0 C1.98 0 3.96 0 6 0 C6.33 0.99 6.66 1.98 7 3 C7.66 3 8.32 3 9 3 C9.33 4.32 9.66 5.64 10 7 C9.52949219 6.66226563 9.05898437 6.32453125 8.57421875 5.9765625 C7.95160156 5.53054687 7.32898438 5.08453125 6.6875 4.625 C6.07261719 4.18414062 5.45773438 3.74328125 4.82421875 3.2890625 C3.2347608 2.16589093 1.61937829 1.07958553 0 0 Z " fill="#C24887" transform="translate(198,195)"/>
<path d="M0 0 C0.66 0.33 1.32 0.66 2 1 C0.68 3.31 -0.64 5.62 -2 8 C-2.33 7.34 -2.66 6.68 -3 6 C-3.66 5.67 -4.32 5.34 -5 5 C-3.35 3.35 -1.7 1.7 0 0 Z " fill="#2E0B4D" transform="translate(220,332)"/>
<path d="M0 0 C-0.66 0.66 -1.32 1.32 -2 2 C-3.66666667 2 -5.33333333 2 -7 2 C-7.99 2.66 -8.98 3.32 -10 4 C-10.99 3.67 -11.98 3.34 -13 3 C-13 2.34 -13 1.68 -13 1 C-8.59085217 -0.10228696 -4.51617599 -0.07654536 0 0 Z " fill="#302947" transform="translate(178,131)"/>
<path d="M0 0 C0 0.66 0 1.32 0 2 C-2.97 2 -5.94 2 -9 2 C-9 1.34 -9 0.68 -9 0 C-3.375 -1.125 -3.375 -1.125 0 0 Z " fill="#2A2343" transform="translate(198,354)"/>
<path d="M0 0 C0.66 0.33 1.32 0.66 2 1 C-0.71182212 3.60334924 -1.89133813 3.99456691 -5.75 4.1875 C-6.8225 4.125625 -7.895 4.06375 -9 4 C-8.67 3.34 -8.34 2.68 -8 2 C-6.34608154 1.60828247 -4.67654729 1.27942455 -3 1 C-2.01 0.67 -1.02 0.34 0 0 Z " fill="#5F2E72" transform="translate(838,347)"/>
<path d="M0 0 C2.91517292 1.07401108 4.77810176 1.77810176 7 4 C3.71023192 5.09658936 2.28696233 4.79953138 -1 4 C-0.67 2.68 -0.34 1.36 0 0 Z " fill="#261848" transform="translate(211,343)"/>
<path d="M0 0 C2.96404505 2.80804268 5.44499019 5.18315774 7 9 C1.23131393 6.54523997 1.23131393 6.54523997 0.125 3.9375 C0.04045569 2.62706319 0 1.31316121 0 0 Z " fill="#310B52" transform="translate(119,263)"/>
<path d="M0 0 C0 3.20395416 -0.74335022 5.09399739 -2 8 C-3.32 7.34 -4.64 6.68 -6 6 C-4.02 4.02 -2.04 2.04 0 0 Z " fill="#31274C" transform="translate(444,215)"/>
<path d="M0 0 C2 3.75 2 3.75 2 6 C1.34 6 0.68 6 0 6 C0 6.66 0 7.32 0 8 C-2.64 8 -5.28 8 -8 8 C-8 7.67 -8 7.34 -8 7 C-5.69 7 -3.38 7 -1 7 C-0.67 4.69 -0.34 2.38 0 0 Z " fill="#63277A" transform="translate(148,336)"/>
<path d="M0 0 C0.99 0.66 1.98 1.32 3 2 C0.25 7.875 0.25 7.875 -2 9 C-1.125 1.125 -1.125 1.125 0 0 Z " fill="#251C40" transform="translate(286,225)"/>
<path d="M0 0 C1.32 0.33 2.64 0.66 4 1 C-1.14285714 5.42857143 -1.14285714 5.42857143 -5 6 C-5 5.34 -5 4.68 -5 4 C-3.35 3.67 -1.7 3.34 0 3 C0 2.01 0 1.02 0 0 Z " fill="#653478" transform="translate(748,345)"/>
<path d="M0 0 C-3.96 1.98 -3.96 1.98 -8 4 C-7.67 2.68 -7.34 1.36 -7 0 C-4 -1 -4 -1 0 0 Z " fill="#2D2544" transform="translate(258,339)"/>
<path d="M0 0 C0.763125 0.61875 1.52625 1.2375 2.3125 1.875 C4.99625809 4.05597052 4.99625809 4.05597052 8 6 C6.02 6 4.04 6 2 6 C1.34 4.02 0.68 2.04 0 0 Z " fill="#6D3B7C" transform="translate(810,311)"/>
<path d="M0 0 C-3.51187196 2.40814077 -5.72656908 3.36629408 -10 3 C-4.375 -1.3125 -4.375 -1.3125 0 0 Z " fill="#3F294F" transform="translate(252,181)"/>
<path d="M0 0 C0 0.99 0 1.98 0 3 C-3 5.1875 -3 5.1875 -6 7 C-6.66 6.67 -7.32 6.34 -8 6 C-7.0479279 4.99403703 -6.08812654 3.99538437 -5.125 3 C-4.59132812 2.443125 -4.05765625 1.88625 -3.5078125 1.3125 C-2 0 -2 0 0 0 Z " fill="#EFD1E9" transform="translate(139,155)"/>
<path d="M0 0 C2.4375 0.375 2.4375 0.375 5 1 C5.33 1.66 5.66 2.32 6 3 C5.01 3 4.02 3 3 3 C3 3.66 3 4.32 3 5 C2.01 4.67 1.02 4.34 0 4 C0 2.68 0 1.36 0 0 Z " fill="#703486" transform="translate(818,344)"/>
<path d="M0 0 C0.66 0.33 1.32 0.66 2 1 C-1.44615385 5.8 -1.44615385 5.8 -4.25 6.8125 C-5.11625 6.9053125 -5.11625 6.9053125 -6 7 C-4.625 5 -4.625 5 -3 3 C-2.34 3 -1.68 3 -1 3 C-0.67 2.01 -0.34 1.02 0 0 Z " fill="#320B51" transform="translate(182,325)"/>
<path d="M0 0 C0.66 0.33 1.32 0.66 2 1 C0.35 3.64 -1.3 6.28 -3 9 C-3.33 7.68 -3.66 6.36 -4 5 C-3.01 4.67 -2.02 4.34 -1 4 C-0.26676204 1.98491642 -0.26676204 1.98491642 0 0 Z " fill="#581C78" transform="translate(228,320)"/>
<path d="M0 0 C0.33 0 0.66 0 1 0 C1 1.65 1 3.3 1 5 C0.01 5.33 -0.98 5.66 -2 6 C-2.73323796 8.01508358 -2.73323796 8.01508358 -3 10 C-3.33 9.34 -3.66 8.68 -4 8 C-3.22265625 6.0546875 -3.22265625 6.0546875 -2.0625 3.875 C-1.49208984 2.78832031 -1.49208984 2.78832031 -0.91015625 1.6796875 C-0.60980469 1.12539063 -0.30945313 0.57109375 0 0 Z " fill="#2A094D" transform="translate(235,310)"/>
<path d="M0 0 C1.32 0.33 2.64 0.66 4 1 C2.515 4.465 2.515 4.465 1 8 C0.02391783 5.07175348 -0.08226668 3.04386724 0 0 Z " fill="#281E44" transform="translate(301,263)"/>
<path d="M0 0 C2.4375 0.75 2.4375 0.75 5 2 C5.8125 4.125 5.8125 4.125 6 6 C5.01 6.495 5.01 6.495 4 7 C3.67 6.01 3.34 5.02 3 4 C2.01 3.34 1.02 2.68 0 2 C0 1.34 0 0.68 0 0 Z " fill="#2F2A48" transform="translate(299,254)"/>
<path d="M0 0 C0.66 0.33 1.32 0.66 2 1 C1.67 1.99 1.34 2.98 1 4 C-0.98 4.33 -2.96 4.66 -5 5 C-3.35 3.35 -1.7 1.7 0 0 Z " fill="#2A2045" transform="translate(450,210)"/>
<path d="M0 0 C1.65 0.33 3.3 0.66 5 1 C3.68 2.65 2.36 4.3 1 6 C-0.0625 4.125 -0.0625 4.125 -1 2 C-0.67 1.34 -0.34 0.68 0 0 Z " fill="#231B42" transform="translate(180,211)"/>
<path d="M0 0 C-2.91708924 1.98362069 -4.12380904 1.9876191 -7.75 1.625 C-8.8225 1.41875 -9.895 1.2125 -11 1 C-6.8204355 -1.78637633 -4.85331323 -0.79562512 0 0 Z " fill="#805591" transform="translate(620,136)"/>
</svg>
